<svg width="48" height="48" viewBox="0 0 48 48" fill="none" xmlns="http://www.w3.org/2000/svg">
<path d="M40.9135 34.2069C40.9135 32.2644 39.3388 30.6897 37.3963 30.6897C35.4538 30.6897 33.8791 32.2644 33.8791 34.2069C33.8791 36.1494 35.4538 37.7241 37.3963 37.7241C39.3388 37.7241 40.9135 36.1494 40.9135 34.2069Z" fill="url(#paint0_linear_977_23533)"/>
<path opacity="0.2" d="M40.6291 34.3491C40.6291 32.4852 39.118 30.9741 37.2541 30.9741C35.3901 30.9741 33.8791 32.4852 33.8791 34.3491C33.8791 36.2131 35.3901 37.7241 37.2541 37.7241C39.1181 37.7241 40.6291 36.2131 40.6291 34.3491Z" fill="black" fill-opacity="0.7"/>
<rect x="30.3619" y="17.207" width="7.03442" height="21.1033" rx="3.51721" transform="rotate(30 30.3619 17.207)" fill="url(#paint1_linear_977_23533)"/>
<rect x="22.7413" y="9" width="7.03442" height="30.4825" rx="3.51721" transform="rotate(30 22.7413 9)" fill="url(#paint2_linear_977_23533)"/>
<defs>
<linearGradient id="paint0_linear_977_23533" x1="37.3963" y1="41.2413" x2="44.4307" y2="34.2069" gradientUnits="userSpaceOnUse">
<stop stop-color="#52CFD1"/>
<stop offset="1" stop-color="#00B0B2"/>
</linearGradient>
<linearGradient id="paint1_linear_977_23533" x1="26.8447" y1="27.7587" x2="39.5066" y2="31.9793" gradientUnits="userSpaceOnUse">
<stop stop-color="#52CFD1"/>
<stop offset="1" stop-color="#00B0B2"/>
</linearGradient>
<linearGradient id="paint2_linear_977_23533" x1="19.2241" y1="24.2412" x2="32.5816" y2="27.3237" gradientUnits="userSpaceOnUse">
<stop stop-color="#52CFD1"/>
<stop offset="1" stop-color="#00B0B2"/>
</linearGradient>
</defs>
</svg>
